<?xml version="1.0" encoding="UTF-8" standalone="no"?>
<!-- Created with Inkscape (http://www.inkscape.org/) -->

<svg
   version="1.1"
   id="svg1"
   width="85.333336"
   height="85.333336"
   viewBox="0 0 85.333336 85.333336"
   sodipodi:docname="icon.svg"
   inkscape:version="1.3 (0e150ed, 2023-07-21)"
   xmlns:inkscape="http://www.inkscape.org/namespaces/inkscape"
   xmlns:sodipodi="http://sodipodi.sourceforge.net/DTD/sodipodi-0.dtd"
   xmlns="http://www.w3.org/2000/svg"
   xmlns:svg="http://www.w3.org/2000/svg">
  <defs
     id="defs1" />
  <sodipodi:namedview
     id="namedview1"
     pagecolor="#ffffff"
     bordercolor="#000000"
     borderopacity="0.25"
     inkscape:showpageshadow="2"
     inkscape:pageopacity="0.0"
     inkscape:pagecheckerboard="0"
     inkscape:deskcolor="#d1d1d1"
     inkscape:zoom="2.7656249"
     inkscape:cx="42.666668"
     inkscape:cy="42.666668"
     inkscape:window-width="1440"
     inkscape:window-height="847"
     inkscape:window-x="0"
     inkscape:window-y="25"
     inkscape:window-maximized="1"
     inkscape:current-layer="g1" />
  <g
     inkscape:groupmode="layer"
     inkscape:label="Image"
     id="g1">
    <path
       style="fill:#000000"
       d="M 29.419426,72.333335 C 26.225788,69.742298 13.333334,34.312546 13.333334,28.127147 c 0,-2.084389 1.292562,-4.861491 3,-6.445578 C 21.606959,16.78893 32.141673,12 37.630903,12 c 4.527518,0 6.278384,0.996431 12.975639,7.384529 9.856626,9.401629 14.924831,20.099562 15.764249,33.27507 0.738473,11.591066 -0.09369,12.50506 -16.405541,18.018816 -13.654921,4.615657 -16.603744,4.853178 -20.545824,1.65492 z M 49.39364,66.767046 c 13.703148,-4.740263 12.091547,-5.345686 -2.324809,-0.873352 -5.72119,1.774864 -11.602163,3.505263 -13.06883,3.845332 -2.139477,0.496069 -1.995757,0.648883 0.726972,0.772974 1.866502,0.08507 8.466502,-1.600162 14.666667,-3.744954 z m -2.864875,-2.872011 c 7.042514,-2.257732 13.925839,-4.190783 15.296278,-4.295669 2.217731,-0.169734 2.413488,-1.053331 1.780325,-8.03596 C 62.644773,40.969797 56.423067,28.674485 48.06875,20.859999 c -3.641645,-3.406333 -7.696877,-6.192859 -9.011628,-6.19228 -3.562225,0.0016 -18.025093,7.212397 -20.860617,10.400589 -1.358589,1.527564 -2.155957,3.562107 -1.771929,4.521208 0.469413,1.172349 0.732727,1.009764 0.803495,-0.496121 0.06356,-1.352581 3.999766,-4.389752 9.936074,-7.666667 11.420822,-6.304433 16.298227,-7.291403 7.050592,-1.426727 -3.46904,2.2 -6.736508,4.00298 -7.261041,4.006623 -2.169927,0.01507 -8.119251,6.231384 -8.926128,9.32671 -0.700059,2.685557 -0.571876,2.944668 0.659602,1.333334 1.22041,-1.596853 1.361626,-1.238377 0.700566,1.778385 -0.60588,2.76495 -0.395219,3.510941 0.785407,2.781273 1.109409,-0.685652 1.347415,-0.304066 0.761956,1.221615 -0.468273,1.2203 -0.229804,2.218727 0.529932,2.218727 0.801702,0 1.003948,1.189048 0.481975,2.833639 -0.54668,1.722436 -0.385841,2.516266 0.410149,2.024317 0.728651,-0.450331 1.309512,0.725723 1.309512,2.651332 0,1.903361 0.75187,3.925336 1.670821,4.493279 0.918951,0.567944 1.296851,1.637718 0.839779,2.377278 -0.457073,0.73956 0.04257,3.356642 1.110323,5.815738 1.067752,2.459096 1.964851,3.901084 1.993555,3.204418 0.0287,-0.696667 0.772189,-0.546667 1.652189,0.333333 2.04385,2.04385 0.766261,2.249059 15.595431,-2.504967 z m 7.040138,-6.117878 c 0.648735,-3.345026 3.764432,-3.804326 3.764432,-0.554933 0,1.637783 -0.860919,2.777778 -2.097766,2.777778 -1.241652,0 -1.921831,-0.90716 -1.666666,-2.222845 z M 41.062651,45.681173 C 38.08048,44.999238 36.685385,40.3873 38.71977,37.936017 c 3.509164,-4.228284 9.280231,-1.662385 9.280231,4.126123 0,2.283979 -3.893441,4.315085 -6.93735,3.619033 z m 2.93735,-4.269149 c 0,-0.690054 -0.6,-1.625465 -1.333333,-2.078689 -0.733333,-0.453225 -1.333333,0.111364 -1.333333,1.254644 0,1.143279 0.6,2.078689 1.333333,2.078689 0.733333,0 1.333333,-0.56459 1.333333,-1.254644 z"
       id="path1" />
  </g>
</svg>
